<?xml version="1.0" encoding="UTF-8"?><svg id="Grundfos_logo_B_100mm" xmlns="http://www.w3.org/2000/svg" viewBox="0 0 283.47 148.06"><defs><style>.cls-1{fill:#11497b;}</style></defs><g><g><g><polygon class="cls-1" points="133.23 80.18 133.23 94.01 119.96 80.18 110.12 80.18 110.12 103.09 116.53 103.09 116.53 89.47 129.84 103.09 139.67 103.09 139.67 80.18 133.23 80.18"/><path class="cls-1" d="M48.5,84.75h5.24c2.9,0,4.5,1.43,4.5,3.79,0,3.15-1.46,4.21-5.8,4.25l6.51,10.3h10.63l-6.73-9.71c1.03-.14,5.48-.75,5.48-6.69,0-6.47-6.46-6.51-10.62-6.51h-18.8v22.91h9.59v-18.34Z"/><path class="cls-1" d="M93.59,80.18v12.84c0,2.16-.43,3.68-1.33,4.63-.81,.87-2.01,1.29-3.69,1.29s-2.85-.42-3.67-1.29c-.9-.96-1.34-2.47-1.34-4.63v-12.84h-9.73v13.45c0,3.62,.74,5.15,2.3,6.7,2.42,2.41,7.03,3.43,12.44,3.43s10.06-1.02,12.48-3.43c1.56-1.55,2.27-3.07,2.27-6.7v-13.45h-9.73Z"/><path class="cls-1" d="M162.56,80.18h-15.63v22.91h15.64c11.44,0,16.76-2.46,16.76-11.51s-5.31-11.4-16.76-11.4Zm-1.03,18.21h-4.94v-13.53h4.94c5.17,0,7.57,2.24,7.57,6.77s-2.62,6.76-7.57,6.76Z"/><path class="cls-1" d="M231.01,79.5c-12.55,0-18.03,4.56-18.03,12.01,0,8.26,5.48,12.25,18.03,12.25s17.93-4.01,17.93-12.28c0-7.37-5.54-11.98-17.93-11.98Zm-.05,19.62c-4.92,0-7.4-2.6-7.4-7.51s2.41-7.5,7.4-7.5,7.41,2.52,7.41,7.5-2.16,7.51-7.41,7.51Z"/><polygon class="cls-1" points="194.99 85.09 208.27 85.09 211.31 80.18 185.14 80.18 185.14 103.09 194.99 103.09 194.99 95.64 205.84 95.64 208.94 90.7 194.99 90.7 194.99 85.09"/></g><path class="cls-1" d="M22.92,92.06v6.54s-2.78,.31-4.13,.31c-7.62,0-8.44-4.14-8.44-7.12,0-4.69,3.04-7.2,9.15-7.2,4.01,0,6.13,.2,9.06,.72l1.16,.23,3.07-4.98c-6.75-.85-11.01-.9-14.71-.9-12.39,0-18.08,3.92-18.08,12.26s5.58,11.72,18.03,11.72c5.4,0,10.44-.41,14.54-1.33v-10.25h-9.64Z"/><path class="cls-1" d="M272.46,88.83c-4.47-.71-7.33-.69-7.33-2.81s4.51-2.21,7.37-2.21c1.71,0,5.09,.33,7.7,.82l2.81-4.47c-1.92-.26-7.12-.77-12.81-.77-10.29,0-16.88,1.79-16.88,6.79,0,5.28,5.59,6.26,11.13,7.16,4.34,.7,7.2,.81,7.2,2.88,0,2.34-3.82,2.65-7.65,2.65-1.11,0-4.38-.2-8.31-1.01l-3.27,5.22c4.3,.46,6.32,.8,14.19,.8,11.46,0,16.87-2.1,16.87-7.72,0-5.23-5.66-6.49-11-7.33Z"/></g><g><g><path class="cls-1" d="M125.16,68.73h-18.45c13.01-13.02,25.73-25.75,25.73-25.75,0,0,1.56,.94,4.9,4.25,3.39,3.35,4.39,4.92,4.39,4.92l-16.57,16.58Z"/><path class="cls-1" d="M116.65,48.73c-9.77-11.9-12.49-17.09-14.97-23.27-1.58-3.94-3.55-11.65,.5-15.7,3.58-3.58,10.63-2.34,17.73,.84,8.14,3.64,17.53,10.29,26.36,18.55L175.43,0V18.41l-26.67,26.69s-2.89-3.02-4.38-4.48c-15.67-15.41-30.2-22.89-33.83-19.33-4.85,4.77,10.11,22.13,10.63,22.9l-4.53,4.52Z"/></g><path class="cls-1" d="M175.43,68.73h-10.38s-1.2-3.42-4.85-9.14c-3.6-5.63-6.89-8.85-6.89-8.85l7-6.99c2.83,3.39,5.83,7.34,8.6,11.78,2.57,4.11,4.96,8.53,6.53,13.2Z"/></g></g><g><path class="cls-1" d="M38.91,144.6v-9.81s2.18-.04,3.95-.04c3.79,0,5.35,1.31,5.35,3.15,0,1.95-1.63,3.39-5.65,3.39-.76,0-1.8-.01-1.8-.01v3.33h-1.85Zm1.85-4.65s1.12,.06,1.96,.06c2.47,0,3.53-.8,3.53-1.99s-1.02-1.99-3.58-1.99c-.8,0-1.92,.01-1.92,.01v3.91Z"/><path class="cls-1" d="M54.33,144.75c-2.91,0-4.85-1.32-4.85-3.66,0-2.21,1.92-3.85,5.1-3.85,2.91,0,4.85,1.32,4.85,3.66,0,2.21-1.93,3.85-5.1,3.85Zm.13-6.23c-1.8,0-3.11,.91-3.11,2.48s1.28,2.46,3.1,2.46,3.11-.89,3.11-2.47-1.29-2.47-3.1-2.47Z"/><path class="cls-1" d="M68,138.69c-.93-.19-1.95-.32-2.82-.32-1.42,0-1.99,.33-1.99,.83,0,1.43,5.64,.77,5.64,3.37,0,1.23-1.22,2.18-4.05,2.18-1.05,0-2.34-.12-3.36-.29l.16-1.25c1.11,.25,2.4,.39,3.36,.39,1.47,0,2.08-.38,2.08-.92,0-1.48-5.62-.78-5.62-3.37,0-1.19,1.21-2.08,3.94-2.08,.92,0,1.92,.07,2.83,.23l-.16,1.22Z"/><path class="cls-1" d="M77.54,138.69c-.93-.19-1.95-.32-2.82-.32-1.42,0-1.99,.33-1.99,.83,0,1.43,5.64,.77,5.64,3.37,0,1.23-1.22,2.18-4.05,2.18-1.05,0-2.34-.12-3.36-.29l.16-1.25c1.1,.25,2.4,.39,3.36,.39,1.47,0,2.08-.38,2.08-.92,0-1.48-5.62-.78-5.62-3.37,0-1.19,1.21-2.08,3.94-2.08,.92,0,1.92,.07,2.83,.23l-.16,1.22Z"/><path class="cls-1" d="M81.87,136.12c-.7,0-1.16-.47-1.16-.99s.45-1,1.16-1,1.16,.47,1.16,1-.45,.99-1.16,.99Zm-.9,8.49v-7.22h1.8v7.22h-1.8Z"/><path class="cls-1" d="M87.72,137.2c0,.52-.04,1.21-.12,1.7h.01c.58-.99,1.86-1.67,3.58-1.67,2.43,0,3.84,1.23,3.84,3.44,0,2.51-1.98,4.04-5.44,4.04-1.29,0-2.62-.16-3.68-.32v-10.36h1.8v3.17Zm0,6.09c.57,.07,1.34,.17,2.09,.17,2.01,0,3.33-.81,3.33-2.65,0-1.42-.78-2.31-2.41-2.31-1.79,0-3.01,1.25-3.01,2.8v1.98Z"/><path class="cls-1" d="M98.39,136.12c-.7,0-1.16-.47-1.16-.99s.45-1,1.16-1,1.16,.47,1.16,1-.45,.99-1.16,.99Zm-.9,8.49v-7.22h1.8v7.22h-1.8Z"/><path class="cls-1" d="M102.43,144.6v-10.57h1.8v10.57h-1.8Z"/><path class="cls-1" d="M108.28,136.12c-.7,0-1.16-.47-1.16-.99s.45-1,1.16-1,1.16,.47,1.16,1-.45,.99-1.16,.99Zm-.9,8.49v-7.22h1.8v7.22h-1.8Z"/><path class="cls-1" d="M118.12,144.51c-.68,.13-1.56,.23-2.34,.23-2.12,0-2.85-.65-2.85-2.4v-3.72h-2.04v-1.25h2.04v-2.3l1.8-.41v2.7h3.33v1.25h-3.33v3.43c0,1.02,.35,1.41,1.51,1.41,.52,0,1.24-.07,1.76-.19l.12,1.23Z"/><path class="cls-1" d="M124.95,144.72c-1.32,2.47-2.67,3.34-5.09,3.34-.55,0-1.1-.07-1.1-.07l.12-1.35s.61,.12,1.21,.12c1.15,0,1.86-.48,2.57-1.67l.26-.48-3.88-7.22h2.08l2.14,3.91c.29,.63,.54,1.19,.76,1.73h.03c.2-.52,.47-1.13,.76-1.79l2.06-3.85h2.03l-3.94,7.34Z"/><path class="cls-1" d="M136.06,136.12c-.7,0-1.16-.47-1.16-.99s.45-1,1.16-1,1.16,.47,1.16,1-.45,.99-1.16,.99Zm-.9,8.49v-7.22h1.8v7.22h-1.8Z"/><path class="cls-1" d="M146.8,144.6v-4.33c0-1.13-.41-1.76-1.87-1.76-1.77,0-3.02,1.19-3.02,2.77v3.31h-1.8v-7.22h1.72c0,.51-.03,1.15-.1,1.6h.01c.61-1.05,1.93-1.74,3.65-1.74,2.43,0,3.23,1.05,3.23,2.7v4.66h-1.8Z"/><path class="cls-1" d="M157.38,141.25c.04,1.6,1.21,2.31,3.31,2.31,1.03,0,2.11-.13,3.2-.39l.17,1.15c-1.16,.28-2.37,.44-3.66,.44-3.1,0-4.85-1.18-4.85-3.65,0-2.17,1.73-3.87,4.69-3.87s4.19,1.42,4.19,3.27c0,.39-.03,.74-.03,.74h-7.02Zm.06-1.03h5.19c-.06-1.16-.93-1.85-2.47-1.85s-2.49,.79-2.72,1.85Z"/><path class="cls-1" d="M171.39,144.6h-2.15l-3.85-7.22h2.06l2.18,4.07c.28,.6,.52,1.13,.73,1.64h.03c.2-.51,.42-1.03,.68-1.6l2.17-4.11h2.02l-3.87,7.22Z"/><path class="cls-1" d="M177.8,141.25c.04,1.6,1.21,2.31,3.31,2.31,1.03,0,2.11-.13,3.2-.39l.17,1.15c-1.16,.28-2.37,.44-3.66,.44-3.1,0-4.85-1.18-4.85-3.65,0-2.17,1.73-3.87,4.69-3.87s4.19,1.42,4.19,3.27c0,.39-.03,.74-.03,.74h-7.02Zm.06-1.03h5.19c-.06-1.16-.93-1.85-2.47-1.85s-2.48,.79-2.72,1.85Z"/><path class="cls-1" d="M192.59,138.79c-2.3-.28-3.36,.79-3.36,2.96v2.85h-1.8v-7.22h1.72c0,.52-.04,1.16-.1,1.66h.01c.45-.97,1.44-1.93,3.59-1.79l-.06,1.54Z"/><path class="cls-1" d="M199.32,144.72c-1.32,2.47-2.67,3.34-5.09,3.34-.55,0-1.1-.07-1.1-.07l.12-1.35s.61,.12,1.21,.12c1.15,0,1.86-.48,2.57-1.67l.26-.48-3.88-7.22h2.08l2.14,3.91c.29,.63,.54,1.19,.76,1.73h.03c.2-.52,.47-1.13,.76-1.79l2.06-3.85h2.04l-3.94,7.34Z"/><path class="cls-1" d="M216.26,144.6c0-.51,.03-1.1,.09-1.55h-.01c-.64,1.02-1.93,1.7-3.63,1.7-2.46,0-3.85-1.25-3.85-3.43,0-2.51,1.98-4.05,5.39-4.05,.64,0,1.37,.04,1.92,.1v-3.33h1.82v10.57h-1.72Zm-.1-5.93c-.65-.1-1.4-.16-2.08-.16-2.01,0-3.34,.81-3.34,2.64,0,1.44,.81,2.31,2.41,2.31,1.77,0,3.01-1.21,3.01-2.82v-1.98Z"/><path class="cls-1" d="M226.27,138.79c-2.3-.28-3.36,.79-3.36,2.96v2.85h-1.8v-7.22h1.72c0,.52-.04,1.16-.1,1.66h.01c.45-.97,1.44-1.93,3.59-1.79l-.06,1.54Z"/><path class="cls-1" d="M232.28,144.75c-2.91,0-4.85-1.32-4.85-3.66,0-2.21,1.92-3.85,5.1-3.85,2.91,0,4.85,1.32,4.85,3.66,0,2.21-1.93,3.85-5.1,3.85Zm.13-6.23c-1.8,0-3.11,.91-3.11,2.48s1.28,2.46,3.09,2.46,3.11-.89,3.11-2.47-1.29-2.47-3.1-2.47Z"/><path class="cls-1" d="M239.84,147.99v-10.61h1.71c0,.51-.03,1.1-.1,1.55h.03c.62-1.03,1.93-1.7,3.63-1.7,2.43,0,3.84,1.23,3.84,3.43,0,2.54-1.96,4.05-5.38,4.05-.65,0-1.4-.06-1.93-.12v3.39h-1.8Zm1.8-4.69c.65,.12,1.38,.17,2.09,.17,2.01,0,3.33-.81,3.33-2.65,0-1.44-.79-2.31-2.41-2.31-1.79,0-3.01,1.25-3.01,2.8v1.98Z"/></g></svg>